<svg width="50" height="50" viewBox="0 0 50 50" fill="none" xmlns="http://www.w3.org/2000/svg">
<path d="M16.5891 29.3751L3.60468 17.547C3.45314 17.4063 3.33226 17.2358 3.24959 17.0463C3.16693 16.8567 3.12427 16.6522 3.12427 16.4454C3.12427 16.2386 3.16693 16.034 3.24959 15.8445C3.33226 15.655 3.45314 15.4845 3.60468 15.3438L16.5891 3.5157C17.5422 2.6407 19.0891 3.3282 19.0891 4.62508V10.297C19.0891 10.8438 19.5422 11.297 20.0891 11.297H44.8703C45.9016 11.297 46.7297 12.1251 46.7297 13.1563V19.7345C46.7297 20.7657 45.9016 21.5938 44.8703 21.5938H20.0891C19.5422 21.5938 19.0891 22.047 19.0891 22.5938V28.2657C19.0891 29.5626 17.5422 30.2501 16.5891 29.3751ZM26.5437 33.922C26.5437 33.0626 27.2469 32.3595 28.1062 32.3595C28.9656 32.3595 29.6687 33.047 29.6687 33.922V45.172C29.6672 45.5066 29.5579 45.8319 29.3569 46.0996C29.1559 46.3672 28.874 46.5629 28.553 46.6576C28.2319 46.7523 27.8889 46.741 27.5749 46.6254C27.2608 46.5098 26.9923 46.296 26.8094 46.0157L22.2937 39.1251V45.1563C22.2937 46.0157 21.5906 46.7188 20.7312 46.7188C19.8719 46.7188 19.1687 46.0157 19.1687 45.1563V33.9063C19.1687 33.2188 19.6219 32.6251 20.2781 32.422C20.9344 32.2345 21.6531 32.4845 22.0281 33.0626L26.5437 39.9532V33.922ZM33.325 32.5157H37.2781C38.357 32.5157 39.3919 32.9432 40.1563 33.7046C40.9206 34.4661 41.3521 35.4993 41.3562 36.5782V42.797C41.3562 45.047 39.5281 46.8751 37.2781 46.8751H33.325C32.4656 46.8751 31.7625 46.172 31.7625 45.3126V34.0782C31.7625 33.2188 32.4656 32.5157 33.325 32.5157ZM37.2937 43.7501C37.8094 43.7501 38.2469 43.3282 38.2469 42.797V36.5782C38.2469 36.0626 37.825 35.6251 37.2937 35.6251H34.9031V43.7501H37.2937ZM15.2781 35.6251C16.1375 35.6251 16.8406 34.922 16.8406 34.0626C16.8406 33.2032 16.1375 32.5001 15.2781 32.5001H10.0906C9.23124 32.5001 8.52812 33.2032 8.52812 34.0626V45.3126C8.52812 46.172 9.23124 46.8751 10.0906 46.8751H15.2937C16.1531 46.8751 16.8562 46.172 16.8562 45.3126C16.8562 44.4532 16.1531 43.7501 15.2937 43.7501H11.6375V41.2501H15.2781C16.1375 41.2501 16.8406 40.547 16.8406 39.6876C16.8406 38.8282 16.1375 38.1251 15.2781 38.1251H11.6375V35.6251H15.2781Z" fill="black"/>
</svg>
